<?xml version="1.0" encoding="UTF-8"?>
<!DOCTYPE svg PUBLIC "-//W3C//DTD SVG 1.1//EN" "http://www.w3.org/Graphics/SVG/1.1/DTD/svg11.dtd">
<svg xmlns="http://www.w3.org/2000/svg" version="1.1" width="512px" height="512px" style="shape-rendering:geometricPrecision; text-rendering:geometricPrecision; image-rendering:optimizeQuality; fill-rule:evenodd; clip-rule:evenodd" xmlns:xlink="http://www.w3.org/1999/xlink">
<g><path style="opacity:0.992" fill="#231f20" d="M 234.5,31.5 C 319.587,26.8041 387.754,58.1374 439,125.5C 484.783,195.228 492.117,268.895 461,346.5C 423.571,423.895 362.071,468.061 276.5,479C 191.387,484.184 123.221,453.017 72,385.5C 26.2165,315.772 18.8832,242.105 50,164.5C 87.5858,87.0924 149.086,42.7591 234.5,31.5 Z"/></g>
<g><path style="opacity:1" fill="#2086c7" d="M 266.5,56.5 C 262.064,56.2101 257.73,56.7101 253.5,58C 212.602,76.8974 185.102,107.731 171,150.5C 166.023,165.644 164.189,180.978 165.5,196.5C 156.799,205.199 148.466,214.199 140.5,223.5C 132.122,172.112 143.955,125.779 176,84.5C 181.732,78.2752 187.232,71.9418 192.5,65.5C 216.614,57.0687 241.28,54.0687 266.5,56.5 Z"/></g>
<g><path style="opacity:1" fill="#218ccc" d="M 266.5,56.5 C 268.833,56.5 271.167,56.5 273.5,56.5C 277.475,62.1486 281.475,67.8152 285.5,73.5C 285.423,74.7498 284.756,75.5831 283.5,76C 235.571,90.4289 205.571,121.929 193.5,170.5C 193.624,171.107 193.957,171.44 194.5,171.5C 184.564,179.43 174.897,187.764 165.5,196.5C 164.189,180.978 166.023,165.644 171,150.5C 185.102,107.731 212.602,76.8974 253.5,58C 257.73,56.7101 262.064,56.2101 266.5,56.5 Z"/></g>
<g><path style="opacity:1" fill="#1e76bc" d="M 295.5,59.5 C 298.067,59.7215 300.401,60.3882 302.5,61.5C 307.948,70.2225 313.281,79.0558 318.5,88C 333.801,86.9667 344.134,93.4667 349.5,107.5C 361.617,106.031 373.617,104.698 385.5,103.5C 388.526,106.195 391.526,108.862 394.5,111.5C 379.39,111.142 364.39,112.142 349.5,114.5C 347.629,107.783 343.629,102.616 337.5,99C 331.176,96.6028 324.676,95.1028 318,94.5C 311.065,82.4129 303.565,70.7462 295.5,59.5 Z"/></g>
<g><path style="opacity:1" fill="#1e80c4" d="M 192.5,65.5 C 187.232,71.9418 181.732,78.2752 176,84.5C 143.955,125.779 132.122,172.112 140.5,223.5C 138.229,227.275 135.395,230.608 132,233.5C 126.154,232.187 120.321,232.187 114.5,233.5C 107.119,177.351 120.785,127.018 155.5,82.5C 167.136,75.5184 179.469,69.8518 192.5,65.5 Z"/></g>
<g><path style="opacity:1" fill="#2290ce" d="M 302.5,61.5 C 333.659,68.9119 361.325,82.9119 385.5,103.5C 373.617,104.698 361.617,106.031 349.5,107.5C 344.134,93.4667 333.801,86.9667 318.5,88C 313.281,79.0558 307.948,70.2225 302.5,61.5 Z"/></g>
<g><path style="opacity:1" fill="#2391d0" d="M 285.5,73.5 C 291.226,81.228 296.559,89.228 301.5,97.5C 302.361,99.3863 303.361,101.22 304.5,103C 300.352,106.642 297.686,111.142 296.5,116.5C 295.118,111.236 296.118,106.236 299.5,101.5C 270.675,105.429 248.342,119.762 232.5,144.5C 232.957,145.298 233.624,145.631 234.5,145.5C 220.862,153.655 207.529,162.322 194.5,171.5C 193.957,171.44 193.624,171.107 193.5,170.5C 205.571,121.929 235.571,90.4289 283.5,76C 284.756,75.5831 285.423,74.7498 285.5,73.5 Z"/></g>
<g><path style="opacity:1" fill="#1c75bb" d="M 155.5,82.5 C 120.785,127.018 107.119,177.351 114.5,233.5C 120.321,232.187 126.154,232.187 132,233.5C 135.395,230.608 138.229,227.275 140.5,223.5C 148.466,214.199 156.799,205.199 165.5,196.5C 174.897,187.764 184.564,179.43 194.5,171.5C 207.529,162.322 220.862,153.655 234.5,145.5C 254.018,134.907 274.352,126.24 295.5,119.5C 295.721,122.279 295.388,124.946 294.5,127.5C 284.226,129.814 274.559,133.48 265.5,138.5C 233.701,151.343 205.034,169.01 179.5,191.5C 162.03,205.965 146.697,222.299 133.5,240.5C 127.855,239.613 122.188,239.446 116.5,240C 114.685,240.757 113.019,241.59 111.5,242.5C 105.478,245.188 101.145,249.522 98.5,255.5C 84.149,255.32 69.8157,255.653 55.5,256.5C 56.4949,189.679 83.1616,135.845 135.5,95C 141.803,90.1863 148.469,86.0197 155.5,82.5 Z"/></g>
<g><path style="opacity:1" fill="#90d6ee" d="M 273.5,56.5 C 280.959,56.8554 288.292,57.8554 295.5,59.5C 303.565,70.7462 311.065,82.4129 318,94.5C 324.676,95.1028 331.176,96.6028 337.5,99C 343.629,102.616 347.629,107.783 349.5,114.5C 364.39,112.142 379.39,111.142 394.5,111.5C 399.39,116.268 404.056,121.268 408.5,126.5C 402.355,127.49 396.022,127.823 389.5,127.5C 379.722,127.31 370.055,127.977 360.5,129.5C 360.489,127.983 359.823,126.816 358.5,126C 341.376,112.104 322.376,102.604 301.5,97.5C 296.559,89.228 291.226,81.228 285.5,73.5C 281.475,67.8152 277.475,62.1486 273.5,56.5 Z"/></g>
<g><path style="opacity:1" fill="#2496d3" d="M 296.5,116.5 C 295.89,117.391 295.557,118.391 295.5,119.5C 274.352,126.24 254.018,134.907 234.5,145.5C 233.624,145.631 232.957,145.298 232.5,144.5C 248.342,119.762 270.675,105.429 299.5,101.5C 296.118,106.236 295.118,111.236 296.5,116.5 Z"/></g>
<g><path style="opacity:1" fill="#a2ddf1" d="M 360.5,129.5 C 357.187,130.045 353.854,130.545 350.5,131C 349.358,133.45 348.358,135.95 347.5,138.5C 346.194,140.473 344.527,142.139 342.5,143.5C 329.183,132.67 314.183,124.67 297.5,119.5C 297.08,122.616 296.08,125.283 294.5,127.5C 295.388,124.946 295.721,122.279 295.5,119.5C 295.557,118.391 295.89,117.391 296.5,116.5C 297.686,111.142 300.352,106.642 304.5,103C 303.361,101.22 302.361,99.3863 301.5,97.5C 322.376,102.604 341.376,112.104 358.5,126C 359.823,126.816 360.489,127.983 360.5,129.5 Z"/></g>
<g><path style="opacity:1" fill="#def7fe" d="M 324.5,111.5 C 332.658,110.823 336.158,114.49 335,122.5C 332.774,126.861 329.274,128.361 324.5,127C 320.139,124.774 318.639,121.274 320,116.5C 321.025,114.313 322.525,112.646 324.5,111.5 Z"/></g>
<g><path style="opacity:1" fill="#b1e2f3" d="M 342.5,143.5 C 342.5,143.833 342.5,144.167 342.5,144.5C 341.876,144.917 341.543,145.584 341.5,146.5C 346.194,159.913 349.861,173.579 352.5,187.5C 345.936,180.269 338.936,173.269 331.5,166.5C 330.167,163.5 328.833,160.5 327.5,157.5C 327.167,155.5 326.833,153.5 326.5,151.5C 316.552,152.076 308.219,148.742 301.5,141.5C 298.273,142.909 294.94,143.909 291.5,144.5C 283.186,141.441 274.519,139.441 265.5,138.5C 274.559,133.48 284.226,129.814 294.5,127.5C 296.08,125.283 297.08,122.616 297.5,119.5C 314.183,124.67 329.183,132.67 342.5,143.5 Z"/></g>
<g><path style="opacity:1" fill="#2392d0" d="M 408.5,126.5 C 419.47,139.496 428.47,153.83 435.5,169.5C 444.33,227.245 424.33,271.745 375.5,303C 368.68,306.658 361.68,309.825 354.5,312.5C 355.392,306.148 356.392,299.815 357.5,293.5C 357.739,289.158 358.073,284.824 358.5,280.5C 383.887,267.591 400.387,247.258 408,219.5C 415.656,185.162 407.823,154.996 384.5,129C 386.382,128.802 388.048,128.302 389.5,127.5C 396.022,127.823 402.355,127.49 408.5,126.5 Z"/></g>
<g><path style="opacity:1" fill="#2599d5" d="M 389.5,127.5 C 388.048,128.302 386.382,128.802 384.5,129C 407.823,154.996 415.656,185.162 408,219.5C 400.387,247.258 383.887,267.591 358.5,280.5C 359.401,267.526 359.735,254.526 359.5,241.5C 374.784,226.824 381.284,208.824 379,187.5C 377.654,177.464 374.321,168.13 369,159.5C 362.601,151.599 355.434,144.599 347.5,138.5C 348.358,135.95 349.358,133.45 350.5,131C 353.854,130.545 357.187,130.045 360.5,129.5C 370.055,127.977 379.722,127.31 389.5,127.5 Z"/></g>
<g><path style="opacity:1" fill="#269ed8" d="M 347.5,138.5 C 355.434,144.599 362.601,151.599 369,159.5C 374.321,168.13 377.654,177.464 379,187.5C 381.284,208.824 374.784,226.824 359.5,241.5C 358.479,223.334 356.146,205.334 352.5,187.5C 351.566,172.756 348.233,158.423 342.5,144.5C 342.5,144.167 342.5,143.833 342.5,143.5C 344.527,142.139 346.194,140.473 347.5,138.5 Z"/></g>
<g><path style="opacity:1" fill="#279fd9" d="M 327.5,157.5 C 327.631,158.376 327.298,159.043 326.5,159.5C 301.156,154.088 284.656,163.755 277,188.5C 274.738,209.817 283.572,224.317 303.5,232C 317.963,235.718 330.63,232.551 341.5,222.5C 343.179,232.75 343.846,243.083 343.5,253.5C 312.412,266.687 285.578,260.687 263,235.5C 246.422,211.252 245.256,186.252 259.5,160.5C 259.043,159.702 258.376,159.369 257.5,159.5C 268.598,153.95 279.932,148.95 291.5,144.5C 294.94,143.909 298.273,142.909 301.5,141.5C 308.219,148.742 316.552,152.076 326.5,151.5C 326.833,153.5 327.167,155.5 327.5,157.5 Z"/></g>
<g><path style="opacity:1" fill="#227bc0" d="M 342.5,144.5 C 348.233,158.423 351.566,172.756 352.5,187.5C 349.861,173.579 346.194,159.913 341.5,146.5C 341.543,145.584 341.876,144.917 342.5,144.5 Z"/></g>
<g><path style="opacity:1" fill="#c7eaf6" d="M 265.5,138.5 C 274.519,139.441 283.186,141.441 291.5,144.5C 279.932,148.95 268.598,153.95 257.5,159.5C 243.004,166.242 229.337,174.242 216.5,183.5C 206.918,189.786 197.918,196.786 189.5,204.5C 179.199,213.133 169.533,222.467 160.5,232.5C 159.957,232.44 159.624,232.107 159.5,231.5C 163.552,216.729 170.219,203.395 179.5,191.5C 205.034,169.01 233.701,151.343 265.5,138.5 Z"/></g>
<g><path style="opacity:1" fill="#28a5de" d="M 327.5,157.5 C 328.833,160.5 330.167,163.5 331.5,166.5C 334.104,177.778 336.604,189.111 339,200.5C 340.292,207.79 341.125,215.123 341.5,222.5C 330.63,232.551 317.963,235.718 303.5,232C 283.572,224.317 274.738,209.817 277,188.5C 284.656,163.755 301.156,154.088 326.5,159.5C 327.298,159.043 327.631,158.376 327.5,157.5 Z"/></g>
<g><path style="opacity:1" fill="#2599d5" d="M 257.5,159.5 C 258.376,159.369 259.043,159.702 259.5,160.5C 245.256,186.252 246.422,211.252 263,235.5C 285.578,260.687 312.412,266.687 343.5,253.5C 343.705,264.275 343.039,274.942 341.5,285.5C 340.814,286.848 339.814,288.015 338.5,289C 288.5,298.245 251.333,280.745 227,236.5C 220.047,219.237 216.547,201.57 216.5,183.5C 229.337,174.242 243.004,166.242 257.5,159.5 Z"/></g>
<g><path style="opacity:1" fill="#228ccc" d="M 435.5,169.5 C 446.466,190.413 452.8,212.747 454.5,236.5C 454.666,241.511 454.499,246.511 454,251.5C 433.656,298.916 398.489,328.916 348.5,341.5C 350.5,331.835 352.5,322.168 354.5,312.5C 361.68,309.825 368.68,306.658 375.5,303C 424.33,271.745 444.33,227.245 435.5,169.5 Z"/></g>
<g><path style="opacity:1" fill="#c3e9f6" d="M 331.5,166.5 C 338.936,173.269 345.936,180.269 352.5,187.5C 356.146,205.334 358.479,223.334 359.5,241.5C 359.735,254.526 359.401,267.526 358.5,280.5C 358.073,284.824 357.739,289.158 357.5,293.5C 352.479,305.867 345.646,317.2 337,327.5C 336.31,328.738 335.81,328.738 335.5,327.5C 337.812,316.604 339.479,305.604 340.5,294.5C 341.477,291.713 341.81,288.713 341.5,285.5C 343.039,274.942 343.705,264.275 343.5,253.5C 343.846,243.083 343.179,232.75 341.5,222.5C 341.125,215.123 340.292,207.79 339,200.5C 336.604,189.111 334.104,177.778 331.5,166.5 Z"/></g>
<g><path style="opacity:1" fill="#2392d0" d="M 216.5,183.5 C 216.547,201.57 220.047,219.237 227,236.5C 251.333,280.745 288.5,298.245 338.5,289C 339.814,288.015 340.814,286.848 341.5,285.5C 341.81,288.713 341.477,291.713 340.5,294.5C 337.989,308.185 334.822,321.852 331,335.5C 324.458,336.053 317.958,337.053 311.5,338.5C 284.548,313.689 254.548,293.356 221.5,277.5C 210.685,264.466 202.519,249.799 197,233.5C 194.789,223.557 192.289,213.89 189.5,204.5C 197.918,196.786 206.918,189.786 216.5,183.5 Z"/></g>
<g><path style="opacity:1" fill="#228bcc" d="M 189.5,204.5 C 192.289,213.89 194.789,223.557 197,233.5C 202.519,249.799 210.685,264.466 221.5,277.5C 199.448,268.372 176.782,261.039 153.5,255.5C 151.5,253.177 149.5,250.844 147.5,248.5C 151.354,242.8 155.688,237.467 160.5,232.5C 169.533,222.467 179.199,213.133 189.5,204.5 Z"/></g>
<g><path style="opacity:1" fill="#bee7f5" d="M 179.5,191.5 C 170.219,203.395 163.552,216.729 159.5,231.5C 159.624,232.107 159.957,232.44 160.5,232.5C 155.688,237.467 151.354,242.8 147.5,248.5C 146.876,248.917 146.543,249.584 146.5,250.5C 148.826,254.144 150.159,258.144 150.5,262.5C 156.351,263.523 162.018,264.857 167.5,266.5C 167.935,272.916 169.602,278.916 172.5,284.5C 168.336,282.867 164.003,281.867 159.5,281.5C 156.587,280.072 153.421,279.072 150,278.5C 147.026,283.974 142.859,288.308 137.5,291.5C 136.5,291.5 135.5,291.5 134.5,291.5C 133.289,284.78 131.956,278.113 130.5,271.5C 135.486,268.294 136.652,263.961 134,258.5C 132.729,257.117 131.229,256.117 129.5,255.5C 129.833,250.833 130.167,246.167 130.5,241.5C 131.791,241.737 132.791,241.404 133.5,240.5C 146.697,222.299 162.03,205.965 179.5,191.5 Z"/></g>
<g><path style="opacity:1" fill="#ade1f3" d="M 133.5,240.5 C 132.791,241.404 131.791,241.737 130.5,241.5C 130.167,246.167 129.833,250.833 129.5,255.5C 123.47,254.868 120.137,257.535 119.5,263.5C 120.408,269.799 124.075,272.466 130.5,271.5C 131.956,278.113 133.289,284.78 134.5,291.5C 135.5,291.5 136.5,291.5 137.5,291.5C 134.855,293.31 131.855,294.31 128.5,294.5C 124.003,295.055 119.836,294.389 116,292.5C 112.032,276.068 110.532,259.401 111.5,242.5C 113.019,241.59 114.685,240.757 116.5,240C 122.188,239.446 127.855,239.613 133.5,240.5 Z"/></g>
<g><path style="opacity:1" fill="#2278bd" d="M 147.5,248.5 C 149.5,250.844 151.5,253.177 153.5,255.5C 176.782,261.039 199.448,268.372 221.5,277.5C 254.548,293.356 284.548,313.689 311.5,338.5C 317.958,337.053 324.458,336.053 331,335.5C 334.822,321.852 337.989,308.185 340.5,294.5C 339.479,305.604 337.812,316.604 335.5,327.5C 333.863,333.13 332.029,338.797 330,344.5C 324.089,343.018 318.255,343.352 312.5,345.5C 310.394,344.57 308.394,343.404 306.5,342C 300.295,336.291 293.961,330.791 287.5,325.5C 251.887,297.362 211.887,277.695 167.5,266.5C 162.018,264.857 156.351,263.523 150.5,262.5C 150.159,258.144 148.826,254.144 146.5,250.5C 146.543,249.584 146.876,248.917 147.5,248.5 Z"/></g>
<g><path style="opacity:1" fill="#9fdcf0" d="M 111.5,242.5 C 110.532,259.401 112.032,276.068 116,292.5C 119.836,294.389 124.003,295.055 128.5,294.5C 128.5,294.833 128.5,295.167 128.5,295.5C 124.486,295.334 120.486,295.501 116.5,296C 112.884,302.344 109.55,308.844 106.5,315.5C 102.588,308.761 100.255,301.428 99.5,293.5C 100.212,291.072 101.212,288.739 102.5,286.5C 98.9325,282.132 96.9325,277.132 96.5,271.5C 94.5,271.5 92.5,271.5 90.5,271.5C 90.5,266.5 90.5,261.5 90.5,256.5C 93.3854,256.806 96.0521,256.473 98.5,255.5C 101.145,249.522 105.478,245.188 111.5,242.5 Z"/></g>
<g><path style="opacity:1" fill="#2086c7" d="M 454.5,236.5 C 456.744,263.209 454.078,289.543 446.5,315.5C 439.391,321.436 432.391,327.603 425.5,334C 403.537,351.146 378.87,362.646 351.5,368.5C 351.405,366.214 350.738,364.214 349.5,362.5C 349.206,359.246 347.873,356.579 345.5,354.5C 345.511,349.83 346.511,345.497 348.5,341.5C 398.489,328.916 433.656,298.916 454,251.5C 454.499,246.511 454.666,241.511 454.5,236.5 Z"/></g>
<g><path style="opacity:1" fill="#8bd4ee" d="M 98.5,255.5 C 96.0521,256.473 93.3854,256.806 90.5,256.5C 90.5,261.5 90.5,266.5 90.5,271.5C 79.1483,271.373 67.815,271.706 56.5,272.5C 55.5119,267.36 55.1786,262.026 55.5,256.5C 69.8157,255.653 84.149,255.32 98.5,255.5 Z"/></g>
<g><path style="opacity:1" fill="#dff8fe" d="M 129.5,255.5 C 131.229,256.117 132.729,257.117 134,258.5C 136.652,263.961 135.486,268.294 130.5,271.5C 124.075,272.466 120.408,269.799 119.5,263.5C 120.137,257.535 123.47,254.868 129.5,255.5 Z"/></g>
<g><path style="opacity:1" fill="#1d75bb" d="M 90.5,271.5 C 92.5,271.5 94.5,271.5 96.5,271.5C 96.9325,277.132 98.9325,282.132 102.5,286.5C 101.212,288.739 100.212,291.072 99.5,293.5C 90.6202,310.459 83.2869,328.126 77.5,346.5C 65.2606,323.433 58.2606,298.767 56.5,272.5C 67.815,271.706 79.1483,271.373 90.5,271.5 Z"/></g>
<g><path style="opacity:1" fill="#ddf2fa" d="M 167.5,266.5 C 211.887,277.695 251.887,297.362 287.5,325.5C 282.077,328.863 276.077,330.863 269.5,331.5C 239.768,310.803 207.435,295.136 172.5,284.5C 169.602,278.916 167.935,272.916 167.5,266.5 Z"/></g>
<g><path style="opacity:1" fill="#1e7fc3" d="M 159.5,281.5 C 190.049,333.466 235.382,363.466 295.5,371.5C 295.851,378.908 298.518,385.241 303.5,390.5C 304.861,392.527 306.527,394.194 308.5,395.5C 305.026,398.714 302.359,402.547 300.5,407C 235.334,402.176 183.834,373.343 146,320.5C 140.738,312.98 136.238,304.98 132.5,296.5C 131.264,295.754 129.93,295.421 128.5,295.5C 128.5,295.167 128.5,294.833 128.5,294.5C 131.855,294.31 134.855,293.31 137.5,291.5C 142.859,288.308 147.026,283.974 150,278.5C 153.421,279.072 156.587,280.072 159.5,281.5 Z"/></g>
<g><path style="opacity:1" fill="#2187c8" d="M 159.5,281.5 C 164.003,281.867 168.336,282.867 172.5,284.5C 207.435,295.136 239.768,310.803 269.5,331.5C 279.602,339.76 289.602,348.26 299.5,357C 297.804,359.587 296.804,362.421 296.5,365.5C 295.539,367.265 295.205,369.265 295.5,371.5C 235.382,363.466 190.049,333.466 159.5,281.5 Z"/></g>
<g><path style="opacity:1" fill="#1c74bb" d="M 128.5,295.5 C 129.93,295.421 131.264,295.754 132.5,296.5C 136.238,304.98 140.738,312.98 146,320.5C 183.834,373.343 235.334,402.176 300.5,407C 302.359,402.547 305.026,398.714 308.5,395.5C 309.097,395.735 309.43,396.235 309.5,397C 307.684,400.796 306.017,404.63 304.5,408.5C 295.589,423.972 285.422,438.639 274,452.5C 273.308,453.437 273.475,454.103 274.5,454.5C 206.051,459.409 148.885,436.409 103,385.5C 97.8673,379.547 93.3673,373.214 89.5,366.5C 93.3727,348.882 99.0394,331.882 106.5,315.5C 109.55,308.844 112.884,302.344 116.5,296C 120.486,295.501 124.486,295.334 128.5,295.5 Z"/></g>
<g><path style="opacity:1" fill="#8dd4ee" d="M 99.5,293.5 C 100.255,301.428 102.588,308.761 106.5,315.5C 99.0394,331.882 93.3727,348.882 89.5,366.5C 84.4972,360.505 80.4972,353.838 77.5,346.5C 83.2869,328.126 90.6202,310.459 99.5,293.5 Z"/></g>
<g><path style="opacity:1" fill="#1e7fc3" d="M 446.5,315.5 C 438.45,340.951 425.784,363.617 408.5,383.5C 394.602,390.634 380.102,396.301 365,400.5C 363.893,400.415 362.893,400.081 362,399.5C 358.356,393.37 354.189,387.703 349.5,382.5C 350.984,377.967 351.65,373.3 351.5,368.5C 378.87,362.646 403.537,351.146 425.5,334C 432.391,327.603 439.391,321.436 446.5,315.5 Z"/></g>
<g><path style="opacity:1" fill="#bbe6f4" d="M 357.5,293.5 C 356.392,299.815 355.392,306.148 354.5,312.5C 352.5,322.168 350.5,331.835 348.5,341.5C 346.511,345.497 345.511,349.83 345.5,354.5C 345.631,355.239 345.464,355.906 345,356.5C 341.855,359.304 338.688,361.97 335.5,364.5C 330.167,357.833 324.833,357.833 319.5,364.5C 312.419,367.77 304.919,371.103 297,374.5C 296.502,371.518 296.335,368.518 296.5,365.5C 296.804,362.421 297.804,359.587 299.5,357C 289.602,348.26 279.602,339.76 269.5,331.5C 276.077,330.863 282.077,328.863 287.5,325.5C 293.961,330.791 300.295,336.291 306.5,342C 308.394,343.404 310.394,344.57 312.5,345.5C 318.255,343.352 324.089,343.018 330,344.5C 332.029,338.797 333.863,333.13 335.5,327.5C 335.81,328.738 336.31,328.738 337,327.5C 345.646,317.2 352.479,305.867 357.5,293.5 Z"/></g>
<g><path style="opacity:1" fill="#dff8fe" d="M 335.5,364.5 C 336.491,371.203 333.658,374.869 327,375.5C 321.055,374.296 318.555,370.629 319.5,364.5C 324.833,357.833 330.167,357.833 335.5,364.5 Z"/></g>
<g><path style="opacity:1" fill="#ace1f3" d="M 345.5,354.5 C 347.873,356.579 349.206,359.246 349.5,362.5C 349.67,363.822 349.337,364.989 348.5,366C 335.211,377.311 320.211,385.478 303.5,390.5C 298.518,385.241 295.851,378.908 295.5,371.5C 295.205,369.265 295.539,367.265 296.5,365.5C 296.335,368.518 296.502,371.518 297,374.5C 304.919,371.103 312.419,367.77 319.5,364.5C 318.555,370.629 321.055,374.296 327,375.5C 333.658,374.869 336.491,371.203 335.5,364.5C 338.688,361.97 341.855,359.304 345,356.5C 345.464,355.906 345.631,355.239 345.5,354.5 Z"/></g>
<g><path style="opacity:1" fill="#a0dcf1" d="M 349.5,362.5 C 350.738,364.214 351.405,366.214 351.5,368.5C 351.65,373.3 350.984,377.967 349.5,382.5C 348.326,383.514 347.66,384.847 347.5,386.5C 347.586,387.496 347.252,388.329 346.5,389C 341.839,391.141 337.839,393.974 334.5,397.5C 330.731,397.499 327.731,398.832 325.5,401.5C 318.634,404.067 311.801,406.733 305,409.5C 304.601,409.272 304.435,408.938 304.5,408.5C 306.017,404.63 307.684,400.796 309.5,397C 309.43,396.235 309.097,395.735 308.5,395.5C 306.527,394.194 304.861,392.527 303.5,390.5C 320.211,385.478 335.211,377.311 348.5,366C 349.337,364.989 349.67,363.822 349.5,362.5 Z"/></g>
<g><path style="opacity:1" fill="#1d74ba" d="M 349.5,382.5 C 354.189,387.703 358.356,393.37 362,399.5C 362.893,400.081 363.893,400.415 365,400.5C 380.102,396.301 394.602,390.634 408.5,383.5C 404.401,388.774 400.067,393.941 395.5,399C 390.167,403.667 384.833,408.333 379.5,413C 376.28,415.437 372.947,417.603 369.5,419.5C 362.944,407.951 355.61,396.951 347.5,386.5C 347.66,384.847 348.326,383.514 349.5,382.5 Z"/></g>
<g><path style="opacity:1" fill="#8dd4ee" d="M 347.5,386.5 C 355.61,396.951 362.944,407.951 369.5,419.5C 365.881,422.65 361.881,425.316 357.5,427.5C 356.504,427.586 355.671,427.252 355,426.5C 349.412,415.779 342.579,406.112 334.5,397.5C 337.839,393.974 341.839,391.141 346.5,389C 347.252,388.329 347.586,387.496 347.5,386.5 Z"/></g>
<g><path style="opacity:1" fill="#1d75bb" d="M 334.5,397.5 C 342.579,406.112 349.412,415.779 355,426.5C 355.671,427.252 356.504,427.586 357.5,427.5C 338.38,439.212 317.713,447.212 295.5,451.5C 307.021,435.8 317.021,419.133 325.5,401.5C 327.731,398.832 330.731,397.499 334.5,397.5 Z"/></g>
<g><path style="opacity:1" fill="#8dd4ee" d="M 325.5,401.5 C 317.021,419.133 307.021,435.8 295.5,451.5C 288.614,453.036 281.614,454.036 274.5,454.5C 273.475,454.103 273.308,453.437 274,452.5C 285.422,438.639 295.589,423.972 304.5,408.5C 304.435,408.938 304.601,409.272 305,409.5C 311.801,406.733 318.634,404.067 325.5,401.5 Z"/></g>
</svg>
